<?xml version="1.0" encoding="utf-8"?>
<!-- Generator: Adobe Illustrator 27.7.0, SVG Export Plug-In . SVG Version: 6.00 Build 0)  -->
<svg version="1.1" id="Camada_1" xmlns="http://www.w3.org/2000/svg" xmlns:xlink="http://www.w3.org/1999/xlink" x="0px" y="0px"
	 viewBox="0 0 512 512" style="enable-background:new 0 0 512 512;" xml:space="preserve">
<style type="text/css">
	.st0{fill:#CD1115;}
	.st1{fill:#FFFFFF;}
</style>
<path class="st0" d="M375.48,512H137.07c-75.55,0-136.8-61.25-136.8-136.8V136.8C0.27,61.25,61.52,0,137.07,0h238.41
	c75.55,0,136.8,61.25,136.8,136.8V375.2C512.27,450.75,451.03,512,375.48,512z"/>
<g>
	<rect x="123.55" y="408.97" class="st1" width="239.27" height="34.6"/>
	<g>
		<path class="st1" d="M365.56,387c-10.98,0-22.11-6.26-22.11-18.16v-93.58c0-10.27-2.4-12.37-2.88-12.69
			c-0.39-0.23-0.8-0.2-0.8-0.19l-2.97-6.83c0.41-0.17,4.11-1.64,7.85,0.8c4.21,2.77,6.26,8.97,6.26,18.91v93.58
			c0,7.36,7.59,10.7,14.65,10.7c4.18,0,8.17-1.16,10.97-3.21c2.96-2.16,4.48-5.14,4.48-8.88v-99.94c0-22.22-2.84-58.42-2.86-58.79
			l7.41-0.59c0.03,0.37,2.88,36.86,2.88,59.38v99.94c0,6.06-2.69,11.35-7.54,14.9C376.8,385.34,371.36,387,365.56,387z"/>
	</g>
	<path class="st1" d="M365.57,165.82c-1-0.28-2.22-0.17-3.56,0.15c-2.23-8.74-5.85-14.9-10.84-18.36
		c-7.07-4.91-13.88-2.56-14.63-2.27l3.49,9.28c0.03,0,2.67-0.8,5.48,1.15c2.21,1.53,5.34,5.28,7.35,14.42
		c-4.25,2.58-7.72,5.32-7.72,5.32s-3.64,43.8,6.85,47.96c0.35,0.12,0.73,0.22,1.11,0.34c0.15,4.93,1.19,11.45,5.38,13.93
		c2.56,1.53,7.44,2.98,12.46,2.98c2.38,0,4.79-0.33,7-1.13c3.81-1.4,6.5-4.06,7.77-7.69c0.81-2.3,0.51-6.68-0.04-13.67
		c-0.14-1.69-0.27-3.4-0.36-5.04c0.4-0.4,0.8-0.79,1.15-1.19C392.6,204.98,371.7,167.42,365.57,165.82z M361.01,233.46
		c-1.8-1.07-2.66-4.96-2.89-8.94c1.44,0.02,2.92-0.11,4.44-0.35c0.15,2.88,0.89,5.99,3.01,8.12c1.31,1.3,2.87,2.47,4.44,3.44
		C366.39,235.58,362.89,234.57,361.01,233.46z M381.04,230.22c-0.61,1.75-1.71,3.07-3.31,3.96c-1.88-0.8-6.03-2.8-8.64-5.42
		c-1.23-1.22-1.58-3.53-1.57-5.74c4.72-1.42,9.36-3.67,13.08-6.16c0.05,0.59,0.1,1.16,0.14,1.72
		C381.08,222.9,381.53,228.8,381.04,230.22z"/>
	<path class="st1" d="M319.98,68.43H166.39c-10.43,0-18.89,8.45-18.89,18.89v315.43h191.36V87.32
		C338.87,76.88,330.41,68.43,319.98,68.43z M239.69,361.12c-29.27,0-53-23.72-53-53.01c0-29.27,23.73-52.99,53-52.99
		c29.29,0,53,23.72,53,52.99C292.69,337.39,268.98,361.12,239.69,361.12z M315.33,203.59c0,6.1-4.95,11.04-11.04,11.04H182.1
		c-6.1,0-11.05-4.94-11.05-11.04V95.4c0-6.1,4.95-11.05,11.05-11.05h122.2c6.1,0,11.04,4.95,11.04,11.05V203.59z"/>
</g>
<path class="st1" d="M236.51,336.09c-3.76-0.12-7.19-0.47-10.28-1.05c-3.09-0.58-5.82-1.41-8.19-2.5v-10.37
	c2.37,1.09,5.25,2.09,8.64,3c3.4,0.91,6.67,1.46,9.83,1.64v-15.29c-4.43-1.58-8.01-3.18-10.74-4.82c-2.73-1.64-4.72-3.5-5.96-5.6
	c-1.24-2.09-1.87-4.62-1.87-7.6c0-4.49,1.71-8.07,5.14-10.74c3.43-2.67,7.9-4.22,13.42-4.64v-7.19h6.01v7.1
	c3.34,0.06,6.44,0.43,9.33,1.09c2.88,0.67,5.63,1.58,8.23,2.73l-3.55,9.19c-2.31-0.97-4.66-1.73-7.05-2.27
	c-2.4-0.55-4.72-0.91-6.96-1.09v14.83c3.52,1.15,6.72,2.43,9.6,3.82c2.88,1.4,5.15,3.14,6.82,5.23c1.67,2.09,2.5,4.84,2.5,8.23
	c0,4.37-1.59,7.98-4.78,10.83c-3.19,2.85-7.9,4.58-14.15,5.19v9.46h-6.01V336.09z M236.51,287.87c-2.31,0.24-4.05,0.83-5.23,1.77
	c-1.18,0.94-1.77,2.17-1.77,3.69c0,1.64,0.53,2.96,1.59,3.96c1.06,1,2.87,1.96,5.41,2.87V287.87z M242.51,326.45
	c2.55-0.36,4.43-1.06,5.64-2.09c1.21-1.03,1.82-2.33,1.82-3.91c0-1.58-0.58-2.87-1.73-3.87c-1.15-1-3.06-1.96-5.73-2.87V326.45z"/>
</svg>
